<svg width="1064" height="246" viewBox="0 0 1064 246" fill="none" xmlns="http://www.w3.org/2000/svg">
<mask id="mask0_46_485" style="mask-type:alpha" maskUnits="userSpaceOnUse" x="0" y="0" width="1064" height="246">
<rect width="1064" height="246" fill="#D9D9D9"/>
</mask>
<g mask="url(#mask0_46_485)">
<path fill-rule="evenodd" clip-rule="evenodd" d="M138 0H69.5002C69.5001 0 69.5 7.28816e-05 69.5 0.000162786C69.5 0.00025269 69.4999 0.000325572 69.4998 0.000325572H21.8478C10.3339 0.000325572 1 9.33424 1 20.8482V68.5V68.5003V137V205.5V253.152C1 264.666 10.3339 274 21.8478 274H48.6522C60.1661 274 69.5 264.666 69.5 253.152V226.348C69.5 214.834 78.8339 205.5 90.3478 205.5H138H206.5V253.152C206.5 264.666 215.834 274 227.348 274H254.152C265.666 274 275 264.666 275 253.152V226.348C275 214.834 265.666 205.5 254.152 205.5H206.5V157.848C206.5 146.334 197.166 137 185.652 137H138H90.3478C78.8339 137 69.5 127.666 69.5 116.152V68.5003C69.5 68.5001 69.5001 68.5 69.5003 68.5H138H206.5H254.152C265.666 68.5 275 59.1661 275 47.6522V20.8478C275 9.33389 265.666 0 254.152 0H206.5H138Z" fill="#1D1F1E"/>
<path fill-rule="evenodd" clip-rule="evenodd" d="M858 137L858 68.5002C858 68.5001 858 68.5 858 68.5C858 68.5 858 68.4999 858 68.4998L858 20.8478C858 9.33389 848.666 -4.08012e-07 837.152 -9.11303e-07L789.5 -2.99423e-06L789.5 -2.99424e-06L721 -5.98846e-06L652.5 -8.98269e-06L604.848 -1.10656e-05C593.334 -1.15689e-05 584 9.33388 584 20.8478L584 47.6522C584 59.1661 593.334 68.5 604.848 68.5L631.652 68.5C643.166 68.5 652.5 77.8339 652.5 89.3478L652.5 137L652.5 205.5L604.848 205.5C593.334 205.5 584 214.834 584 226.348L584 253.152C584 264.666 593.334 274 604.848 274L631.652 274C643.166 274 652.5 264.666 652.5 253.152L652.5 205.5L700.152 205.5C711.666 205.5 721 196.166 721 184.652L721 137L721 89.3478C721 77.8339 730.334 68.5 741.848 68.5L789.5 68.5C789.5 68.5 789.5 68.5001 789.5 68.5003L789.5 137L789.5 205.5L789.5 253.152C789.5 264.666 798.834 274 810.348 274L837.152 274C848.666 274 858 264.666 858 253.152L858 205.5L858 137Z" fill="#1D1F1E"/>
<path fill-rule="evenodd" clip-rule="evenodd" d="M432 274L500.5 274C500.5 274 500.5 274 500.5 274C500.5 274 500.5 274 500.5 274L548.152 274C559.666 274 569 264.666 569 253.152L569 205.5L569 205.5L569 137L569 68.5L569 20.8478C569 9.33389 559.666 -2.97016e-05 548.152 -2.8695e-05L521.348 -2.63517e-05C509.834 -2.53451e-05 500.5 9.3339 500.5 20.8478L500.5 47.6522C500.5 59.1661 491.166 68.5 479.652 68.5L432 68.5L363.5 68.5L363.5 20.8478C363.5 9.33391 354.166 -1.17362e-05 342.652 -1.07296e-05L315.848 -8.38631e-06C304.334 -7.37973e-06 295 9.33392 295 20.8478L295 47.6522C295 59.1661 304.334 68.5 315.848 68.5L363.5 68.5L363.5 116.152C363.5 127.666 372.834 137 384.348 137L432 137L479.652 137C491.166 137 500.5 146.334 500.5 157.848L500.5 205.5C500.5 205.5 500.5 205.5 500.5 205.5L432 205.5L363.5 205.5L315.848 205.5C304.334 205.5 295 214.834 295 226.348L295 253.152C295 264.666 304.334 274 315.848 274L363.5 274L432 274Z" fill="#1D1F1E"/>
<path fill-rule="evenodd" clip-rule="evenodd" d="M790 137L790 205.5C790 205.5 790 205.5 790 205.5C790 205.5 790 205.5 790 205.5L790 253.152C790 264.666 799.334 274 810.848 274L858.5 274L858.5 274L927 274L995.5 274L1043.15 274C1054.67 274 1064 264.666 1064 253.152L1064 226.348C1064 214.834 1054.67 205.5 1043.15 205.5L1016.35 205.5C1004.83 205.5 995.5 196.166 995.5 184.652L995.5 137L995.5 68.5L1043.15 68.5C1054.67 68.5 1064 59.1661 1064 47.6522L1064 20.8478C1064 9.3339 1054.67 3.15611e-06 1043.15 3.01881e-06L1016.35 2.69917e-06C1004.83 2.56187e-06 995.5 9.3339 995.5 20.8478L995.5 68.5L947.848 68.5C936.334 68.5 927 77.8339 927 89.3478L927 137L927 184.652C927 196.166 917.666 205.5 906.152 205.5L858.5 205.5C858.5 205.5 858.5 205.5 858.5 205.5L858.5 137L858.5 68.5L858.5 20.8478C858.5 9.33389 849.166 7.05549e-07 837.652 5.68246e-07L810.848 2.48608e-07C799.334 1.11306e-07 790 9.33389 790 20.8478L790 68.5L790 137Z" fill="#1D1F1E"/>
</g>
</svg>
